<svg id="Capa_1" enable-background="new 0 0 512 512" height="512" viewBox="0 0 512 512" width="512" xmlns="http://www.w3.org/2000/svg"><g><path d="m501.507 211.067-236.678-207.349c-5.677-4.974-14.164-4.955-19.819.044l-234.567 207.349 9.934 210.889h471.245z" fill="#fd5"/><path d="m254.134.036v421.964h237.488l9.884-210.933-236.677-207.349c-3.047-2.669-6.902-3.886-10.695-3.682z" fill="#febd3f"/><path d="m343.136 87.253h-175.312l-94.481 94.509v47.759l94.481 94.508h175.312l94.481-94.508v-47.759z" fill="#aae071"/><g fill="#73ca7a"><path d="m254.134 87.253v236.776h89.002l94.481-94.508v-47.759l-94.481-94.509z"/><path d="m167.824 99.097v-11.844h-79.481c-8.284 0-15 6.716-15 15v79.509h11.844c45.566 0 82.637-37.083 82.637-82.665z"/><path d="m85.187 229.521h-11.844v79.509c0 8.284 6.716 15 15 15h79.481v-11.844c0-45.582-37.071-82.665-82.637-82.665z"/><path d="m269.232 191.012c-6.669-2.358-14.773-5.437-19.142-8.584-.055-.523-.003-1.499.509-2.531.637-1.285 1.435-1.526 1.696-1.604 5.387-1.624 8.888.385 10.144 1.324 6.634 4.962 16.033 3.608 20.997-3.025 4.963-6.633 3.608-16.033-3.025-20.996-1.686-1.261-5.341-3.692-10.526-5.528-.603-7.732-7.054-13.822-14.941-13.822-8.182 0-14.823 6.555-14.985 14.699-9.926 4.369-17.174 13.527-19.284 24.726-2.21 11.731 1.745 23.199 10.322 29.929 7.57 5.939 18.043 10.093 28.233 13.696 2.372.839 4.706 2.234 4.035 6.225-.444 2.64-2.717 7.117-8.421 7.155-7.529.064-8.806-.145-14.042-3.571-6.933-4.538-16.229-2.596-20.765 4.337-4.536 6.932-2.594 16.229 4.337 20.765 5.866 3.839 10.664 5.991 15.638 7.168.677 7.657 7.099 13.664 14.932 13.664 8.284 0 15-6.716 15-15v-.443c11.799-5.024 20.664-15.769 22.906-29.1 2.955-17.577-6.536-33.444-23.618-39.484z"/></g><g><g fill="#00a66c"><path d="m269.232 191.012c-4.947-1.75-10.682-3.896-15.098-6.172v32.603c1.697.636 3.4 1.253 5.096 1.853 2.372.839 4.706 2.234 4.035 6.225-.444 2.64-2.717 7.117-8.421 7.155-.249.002-.474.003-.71.004v42.319c.27.014.536.039.81.039 8.284 0 15-6.716 15-15v-.443c11.799-5.024 20.664-15.769 22.906-29.1 2.955-17.576-6.536-33.443-23.618-39.483z"/><path d="m262.439 179.616c6.634 4.962 16.033 3.608 20.997-3.025 4.963-6.633 3.608-16.033-3.025-20.996-1.686-1.261-5.341-3.692-10.526-5.528-.603-7.732-7.054-13.822-14.941-13.822-.273 0-.54.026-.81.04v41.577c4.347-.728 7.199.926 8.305 1.754z"/></g></g><path d="m425.801 181.762h11.816v-79.509c0-8.284-6.716-15-15-15h-79.481v11.871c0 45.566 37.083 82.638 82.665 82.638z" fill="#00a66c"/><path d="m343.136 312.158v11.871h79.481c8.284 0 15-6.716 15-15v-79.509h-11.816c-45.582.001-82.665 37.072-82.665 82.638z" fill="#00a66c"/><path d="m205.26 388.951-194.817-177.84c-3.221 2.847-5.065 6.939-5.065 11.238v274.651c0 8.284 6.716 15 15 15h233.757z" fill="#ecf2ff"/><path d="m280.498 512h211.125c8.284 0 15-6.716 15-15v-274.65c0-4.129-1.717-8.054-4.704-10.88l-195.179 177.481z" fill="#d9e5ff"/><path d="m265.355 297.304c-5.473-4.365-13.236-4.365-18.709 0l-240.426 204.651c2.105 6.017 7.783 10.045 14.157 10.045h471.245c6.374 0 13.089-3.761 14.158-10.045z" fill="#d9e5ff"/><path d="m254.134 294.159v217.841h237.488c6.374 0 13.089-3.761 14.158-10.045l-240.425-204.651c-3.252-2.594-7.312-3.634-11.221-3.145z" fill="#bfd6ff"/></g></svg>